<?xml version="1.0" encoding="utf-8"?>
<!-- Generator: Adobe Illustrator 19.1.0, SVG Export Plug-In . SVG Version: 6.00 Build 0)  -->
<svg version="1.1" id="Layer_1" xmlns="http://www.w3.org/2000/svg" xmlns:xlink="http://www.w3.org/1999/xlink" x="0px" y="0px"
	 viewBox="0 0 228.8 100" style="enable-background:new 0 0 228.8 100;" xml:space="preserve">
<style type="text/css">
	.st0{fill:#3C3C3B;}
</style>
<g>
	<path class="st0" d="M36.2,64.5C47.7,56.3,59.7,47.8,59.7,29c0-16.3-12.1-28.1-28.8-28.1c-17,0-28.4,10.9-28.4,27.2
		c0,6.7,1.4,11.3,5.8,18.9l2.2-1.3c-4.2-7.2-5.5-11.3-5.5-17.6c0-14.7,10.4-24.6,25.8-24.6C46.3,3.4,57.1,14,57.1,29
		c0,17.5-10.9,25.2-22.5,33.5C18.9,73.5,17.4,76.2,13.2,83.2l-1.1,1.9h45.3v-2.6H16.6C19.8,77.2,22.4,74.2,36.2,64.5z"/>
	<path class="st0" d="M26.2,59.1C38.6,49,46.8,42.3,46.8,29.9c0-12-6.2-19.1-16.7-19.1c-10.1,0-16.8,7-16.8,17.3
		c0,4.5,0.9,7.5,4.1,13.7l2.3-1.2c-2.9-5.7-3.8-8.5-3.8-12.5c0-9,5.6-14.8,14.2-14.8c9,0,14.1,6,14.1,16.5
		c0,11.2-7.4,17.2-19.6,27.2C11,68,1.2,75.9,0.1,95.4L0,96.8h57.3v-2.6H2.8C4.2,76.8,13,69.7,26.2,59.1z"/>
	<polygon class="st0" points="85.7,3.6 83.1,3.6 83.1,96.8 141,96.8 141,94.2 85.7,94.2 	"/>
	<path class="st0" d="M191.6,14.1c9.3,0,17.7,5,23.6,14.1l2-1.7c-6.4-9.7-15.4-15-25.6-15c-20.6,0-32.9,15.2-32.9,40.6
		c0,23,12.3,36.7,32.8,36.7c14.4,0,21.2-7.9,24.4-11.7l0.3-0.4V60h-37.1v2.6h34.5v13.1c-3.3,3.8-9.4,10.4-22.2,10.4
		c-19.2,0-30.2-12.4-30.2-34.1C161.3,28.3,172.6,14.1,191.6,14.1z"/>
	<polygon class="st0" points="98.3,3.6 95.7,3.6 95.7,85.8 141,85.8 141,83.2 98.3,83.2 	"/>
	<path class="st0" d="M179.1,48.7v2.6h47.1v28.5c-3.4,4.5-4.9,6.1-8,8.5c-7.6,5.8-17.4,9.2-27,9.2c-26.3,0-43.3-17.5-43.3-44.6
		c0-31,17-50.2,44.3-50.2c12.1,0,23.8,6.1,30.9,16.1L225,17c-7.6-10.6-19.8-17-32.8-17c-28.9,0-46.9,20.2-46.9,52.8
		c0,28.7,18,47.2,45.9,47.2c10.2,0,20.6-3.5,28.6-9.7c3.7-2.7,5.3-4.7,8.8-9.3l0.3-0.3V48.7H179.1z"/>
</g>
</svg>
